# xmcd
#
# Track frame offsets:
#	150
#	16375
#	45325
#	62697
#	103195
#	135477
#
# Disc length: 2160 seconds
#
# Revision: 3
# Processed by: cddbd v1.5.2PL0 Copyright (c) Steve Scherf et al.
# Submitted via: EasyCDDAExtractor 2010.6.0.0
#
DISCID=46086e06
DTITLE=Intrance - Te Quierro '97
DYEAR=1997
DGENRE=Dance
TTITLE0=Te Quierro '97 (Single Cut)
TTITLE1=Te Quierro '97 (Remix)
TTITLE2=Te Quierro '97 (DJ EX-P. Remix)
TTITLE3=Te Quierro '97 (Taucher Remix)
TTITLE4=Te Quierro '97 (DJ Micky Remix)
TTITLE5=Te Quierro (Original '93 Version)
EXTD=
EXTT0=
EXTT1=
EXTT2=
EXTT3=
EXTT4=
EXTT5=
PLAYORDER=
